<svg width="63.187500" height="16.320007" viewBox="0 0 63.1875 16.32" fill="none" xmlns="http://www.w3.org/2000/svg" xmlns:xlink="http://www.w3.org/1999/xlink">
	<desc>
			Created with Pixso.
	</desc>
	<defs/>
	<path d="M4.03 11.35L1.87 16.08L-0.01 16.08L7.27 -5.73e-6L9.64 -5.73e-6L16.94 16.08L15.02 16.08L12.86 11.35L4.03 11.35ZM34.1 -5.73e-6L34.1 2.71L32.39 2.71L32.39 -5.73e-6L34.1 -5.73e-6ZM8.35 1.63L7.48 3.71L4.72 9.81L12.16 9.81L9.38 3.71L8.49 1.63L8.35 1.63ZM49.23 10.15C49.23 13.75 46.66 16.32 42.77 16.32C38.91 16.32 36.34 13.75 36.34 10.15C36.34 6.55 38.91 3.98 42.77 3.98C46.66 3.98 49.23 6.55 49.23 10.15ZM53.2 10.34L53.2 16.08L51.49 16.08L51.49 4.22L53.03 4.22L53.03 7.94L53.15 7.94C53.56 5.92 55.24 3.98 58.19 3.98C61.53 3.98 63.18 6.35 63.18 9.16L63.18 16.08L61.48 16.08L61.48 9.4C61.48 6.95 60.3 5.54 57.59 5.54C54.71 5.54 53.2 7.29 53.2 10.34ZM30.71 4.22L25.05 16.08L22.96 16.08L17.29 4.22L19.14 4.22L23.94 14.4L24.09 14.4L28.86 4.22L30.71 4.22ZM34.1 4.22L34.1 16.08L32.39 16.08L32.39 4.22L34.1 4.22ZM38.02 10.15C38.02 13.03 39.51 14.78 42.77 14.78C46.04 14.78 47.55 13.03 47.55 10.15C47.55 7.29 46.04 5.51 42.77 5.51C39.51 5.51 38.02 7.29 38.02 10.15Z" fill="#22202E" fill-opacity="1.000000" fill-rule="evenodd"/>
</svg>
